<svg xmlns="http://www.w3.org/2000/svg" xmlns:cc="http://creativecommons.org/ns#" xmlns:dc="http://purl.org/dc/elements/1.1/" xmlns:inkscape="http://www.inkscape.org/namespaces/inkscape" xmlns:rdf="http://www.w3.org/1999/02/22-rdf-syntax-ns#" xmlns:sodipodi="http://sodipodi.sourceforge.net/DTD/sodipodi-0.dtd" xmlns:svg="http://www.w3.org/2000/svg" height="53px" id="svg43" version="1.1" viewBox="0 0 163 53" width="163px" sodipodi:docname="logo2.svg" inkscape:version="0.92.0 r15299">
<metadata id="metadata47">
<rdf:RDF>
<cc:Work rdf:about="">
<dc:format>image/svg+xml</dc:format>
<dc:type rdf:resource="http://purl.org/dc/dcmitype/StillImage"></dc:type>
<dc:title>Page 1</dc:title>
</cc:Work>
</rdf:RDF>
</metadata>
<sodipodi:namedview bordercolor="#666666" borderopacity="1" gridtolerance="10" guidetolerance="10" id="namedview45" objecttolerance="10" pagecolor="#ffffff" showgrid="false" inkscape:current-layer="svg43" inkscape:cx="219.24648" inkscape:cy="25.73838" inkscape:pageopacity="0" inkscape:pageshadow="2" inkscape:window-height="757" inkscape:window-maximized="0" inkscape:window-width="1044" inkscape:window-x="319" inkscape:window-y="109" inkscape:zoom="1.7423313"></sodipodi:namedview>
<title id="title2">Page 1</title>
<desc id="desc4">Created with Sketch.</desc>
<defs id="defs7">
<polygon id="path-1" points="9.17423459 14.1033891 9.17423459 0.395985714 0.278340664 0.395985714 0.278340664 14.1033891 9.17423459 14.1033891"></polygon>
</defs>
<path d="m 16.92882,10.200191 3.6103,10.966759 H 13.78114 Z M 14.0881,0.1866 5.07373,30.37522 H 1.21127 v 5.15904 h 12.92532 v -5.15904 h -2.83538 l 1.20553,-4.04923 h 9.30629 l 1.13619,4.04923 h -3.21169 v 5.15904 h 13.78705 v 12.28632 h -3.60982 v 5.15949 H 42.90991 V 47.82058 H 39.30009 V 35.53426 h 7.48732 v 2.06343 h 4.69218 v -9.28636 h -4.69218 v 2.06389 h -7.48732 v -9.20827 h 11.81872 v 3.43889 h 5.41472 V 16.00745 H 29.91476 v 5.1595 h 3.60982 v 9.20827 H 29.24604 L 19.88253,0.1866 Z" id="path2" style="fill:#004185;stroke-width:0.47334188" inkscape:connector-curvature="0"></path>
<path d="m 79.83297,13.26022 c 0,1.81162 -1.25306,2.86136 -2.91686,2.86136 -1.69628,0 -2.93867,-1.04974 -2.93867,-2.86136 V 9.215141 h 1.14492 V 13.3323 c 0,1.19388 0.78849,1.79083 1.79327,1.79083 0.99411,0 1.77145,-0.59695 1.77145,-1.79083 V 9.215141 H 79.832 v 4.045079 z m 8.13324,-4.045079 v 6.906439 h -0.3894 l -4.34254,-4.70394 v 4.59074 H 82.08935 V 9.101944 h 0.39958 l 4.33236,4.693766 V 9.215141 Z m 3.48811,6.793239 H 90.3094 V 9.215141 h 1.14492 z m 7.56102,-5.815582 H 96.60621 V 16.00838 H 95.46129 V 10.192798 H 93.06331 V 9.215141 h 5.95203 z m 6.2973,0 h -3.54386 v 1.739542 h 2.66857 v 0.94717 h -2.66857 v 2.15121 h 3.67334 v 0.97766 h -4.81875 V 9.215141 h 4.68879 v 0.977657 z m 8.11143,2.408562 c 0,1.97611 -1.52365,3.40702 -3.87847,3.40702 h -2.23601 V 9.215141 h 2.23601 c 2.3553,0 3.87847,1.379162 3.87847,3.386219 z m -4.96956,-2.397935 v 4.827295 h 1.0809 c 1.67398,0 2.71125,-1.01878 2.71125,-2.42936 0,-1.451234 -1.03727,-2.397935 -2.71125,-2.397935 z m 14.88492,0.113197 -0.79916,0.586779 c -0.3671,-0.524866 -0.88549,-0.823338 -1.50183,-0.823338 -0.5727,0 -1.08043,0.267515 -1.08043,0.823338 0,0.514699 0.41074,0.699979 0.99411,0.967959 l 0.79917,0.34975 c 1.08042,0.47358 1.70695,0.99845 1.70695,1.93499 0,1.20405 -1.02611,1.96594 -2.38731,1.96594 -1.18856,0 -2.15018,-0.57615 -2.69039,-1.47203 l 0.81032,-0.58678 c 0.41073,0.56599 0.98295,1.08069 1.86892,1.08069 0.73466,0 1.23172,-0.35992 1.23172,-0.94716 0,-0.53504 -0.42141,-0.7411 -1.04794,-1.01878 l -0.78898,-0.35022 c -0.91845,-0.40151 -1.66379,-0.92637 -1.66379,-1.8837 0,-1.12181 1.01593,-1.842116 2.24716,-1.842116 1.04842,0 1.86941,0.514702 2.30148,1.214678 z m 7.3559,-0.123824 h -2.40913 v 5.815582 h -1.14492 v -5.815582 h -2.39846 V 9.215141 h 5.95251 z m 5.07577,4.683602 h -3.2083 l -0.50772,1.13198 h -1.22106 l 3.14381,-6.906436 h 0.38891 l 3.14332,6.906436 h -1.23124 z m -1.59882,-3.75723 -1.18808,2.82023 h 2.36598 z m 9.43044,-0.926372 h -2.40914 v 5.815582 h -1.14492 V 10.192798 H 137.6502 V 9.215141 h 5.95252 z m 6.29633,0 h -3.54339 v 1.739542 h 2.66809 v 0.94717 h -2.66809 v 2.15121 h 3.67286 v 0.97766 h -4.81826 V 9.215141 h 4.6883 v 0.977657 z m 6.44811,0.123824 -0.79916,0.586779 c -0.3671,-0.524866 -0.88549,-0.823338 -1.50183,-0.823338 -0.5727,0 -1.08043,0.267515 -1.08043,0.823338 0,0.514699 0.41074,0.699979 0.99411,0.967959 l 0.79916,0.34975 c 1.08043,0.47358 1.70696,0.99845 1.70696,1.93499 0,1.20405 -1.02611,1.96594 -2.38731,1.96594 -1.18857,0 -2.15018,-0.57615 -2.69039,-1.47203 l 0.81031,-0.58678 c 0.41074,0.56599 0.98296,1.08069 1.86892,1.08069 0.73467,0 1.23173,-0.35992 1.23173,-0.94716 0,-0.53504 -0.42141,-0.7411 -1.04794,-1.01878 l -0.78898,-0.35022 c -0.91846,-0.40151 -1.66379,-0.92637 -1.66379,-1.8837 0,-1.12181 1.01593,-1.842116 2.24716,-1.842116 1.04842,0 1.86941,0.514702 2.30148,1.214678 z" id="path4" style="fill:#004185;stroke-width:0.47334188" inkscape:connector-curvature="0"></path>
<path d="M 75.20868,33.47591 H 69.37642 L 68.4536,35.53379 H 66.23456 L 71.94897,22.97903 H 72.656 l 5.7149,12.55476 h -2.23892 z m -2.90619,-6.82928 -2.16037,5.1267 h 4.30085 z m 10.21166,8.88716 H 80.43234 V 23.1851 h 2.08181 z m 11.40991,0 -3.69177,-4.77092 h -2.37616 v 4.77092 H 85.77482 V 23.1851 h 4.73291 c 2.63123,0 4.3988,1.53394 4.3988,3.77987 0,1.62728 -0.9427,2.89971 -2.49448,3.48002 l 3.88866,5.08927 h -2.37665 z m -6.06841,-6.52941 h 2.61232 c 1.47273,0 2.2976,-0.84182 2.2976,-2.02093 0,-1.19758 -0.82487,-2.0394 -2.2976,-2.0394 h -2.61232 z m 24.13593,-4.04185 h -6.24492 v 3.68655 h 5.1451 v 1.79637 h -5.1451 v 5.08927 h -2.08132 V 23.1851 h 8.32624 z m 14.78794,4.39715 c 0,3.62925 -3.0633,6.38018 -6.81423,6.38018 -3.79021,0 -6.79533,-2.76895 -6.79533,-6.38018 0,-3.61123 3.02451,-6.38065 6.79533,-6.38065 3.75045,4.7e-4 6.81423,2.76942 6.81423,6.38065 z m -11.44919,-0.0189 c 0,2.65713 1.96396,4.58426 4.65436,4.58426 2.65111,0 4.65435,-1.92713 4.65435,-4.58426 0,-2.60078 -2.00324,-4.54685 -4.65435,-4.54685 -2.6904,0 -4.65436,1.92713 -4.65436,4.54685 z m 22.09341,6.19305 -3.69177,-4.77092 h -2.37616 v 4.77092 h -2.08132 V 23.1851 h 4.73292 c 2.63123,0 4.3988,1.53394 4.3988,3.77987 0,1.62728 -0.94271,2.89971 -2.49448,3.48002 l 3.88865,5.08927 h -2.37664 z m -6.06842,-6.52941 h 2.61232 c 1.47273,0 2.2976,-0.84182 2.2976,-2.02093 0,-1.19758 -0.82487,-2.0394 -2.2976,-2.0394 h -2.61232 z m 21.60266,-3.18108 -1.57117,1.10425 c -0.90294,-1.3288 -2.23844,-2.1332 -3.96673,-2.1332 -2.67099,0 -4.67424,1.92713 -4.67424,4.56579 0,2.6382 2.00325,4.56533 4.67424,4.56533 1.72781,0 3.06331,-0.8044 3.96673,-2.1332 l 1.57117,1.10425 c -1.08042,1.72153 -3.12246,2.8438 -5.55778,2.8438 -3.78973,0 -6.81472,-2.75047 -6.81472,-6.38018 0,-3.61123 3.02451,-6.38064 6.81472,-6.38064 2.43532,0 4.45748,1.12227 5.55778,2.8438 z m 11.01713,-0.86077 h -6.44084 v 3.1626 h 4.85027 v 1.72153 h -4.85027 v 3.91063 h 6.677 v 1.77743 h -8.75881 V 23.1851 h 8.52265 z M 78.66477,50.92223 h -5.83225 l -0.92283,2.05834 h -2.21903 l 5.71441,-12.55522 h 0.70703 l 5.71442,12.55522 h -2.23844 z m -2.90667,-6.82974 -2.15988,5.12715 h 4.30085 z m 19.38314,-0.82288 -1.57069,1.1038 c -0.90342,-1.32834 -2.23892,-2.13274 -3.96721,-2.13274 -2.671,0 -4.67424,1.92713 -4.67424,4.56533 0,2.63819 2.00324,4.56578 4.67424,4.56578 1.7278,0 3.0633,-0.80439 3.96721,-2.13319 l 1.57069,1.10425 c -1.08043,1.72153 -3.12198,2.8438 -5.5573,2.8438 -3.79021,0 -6.81472,-2.75047 -6.81472,-6.38064 0,-3.61077 3.02402,-6.38065 6.81472,-6.38065 2.43483,0 4.45748,1.1232 5.5573,2.84426 z m 10.0749,7.65262 h -5.83225 l -0.92282,2.05834 h -2.21904 l 5.71441,-12.55522 h 0.70703 l 5.71442,12.55522 h -2.23844 z m -2.90667,-6.82974 -2.15988,5.12715 h 4.30085 z m 19.24542,2.69456 c 0,3.59229 -2.76895,6.19306 -7.04991,6.19306 h -4.06517 V 40.63142 h 4.06517 c 4.28096,0 7.04991,2.50698 7.04991,6.15563 z m -9.03328,-4.35926 v 8.77489 h 1.96397 c 3.04391,0 4.92931,-1.85228 4.92931,-4.41563 0,-2.63819 -1.8854,-4.35972 -4.92931,-4.35972 h -1.96397 z m 20.03101,-0.0189 h -6.44133 v 3.16214 h 4.85076 v 1.72152 h -4.85076 v 3.91063 h 6.677 v 1.7779 h -8.7588 V 40.63146 h 8.52313 z m 14.96445,-1.9835 v 12.55522 h -2.0818 v -7.7464 l -3.71117,4.64017 h -0.70703 l -3.73105,-4.64017 v 7.7464 h -2.08181 V 40.42539 h 0.72691 l 5.43946,6.90413 5.43995,-6.90413 z m 8.75881,7.55929 v 4.99593 h -2.08181 v -4.97699 l -4.47736,-7.3717 h 2.31748 l 3.20103,5.36972 3.2209,-5.36972 h 2.2976 z" id="path6" style="fill:#1c2f5b;stroke-width:0.47334188" inkscape:connector-curvature="0"></path>
</svg>
